<?xml version="1.0" encoding="UTF-8" standalone="no"?>
<!DOCTYPE svg PUBLIC "-//W3C//DTD SVG 1.1//EN" "http://www.w3.org/Graphics/SVG/1.1/DTD/svg11.dtd">
<svg width="100%" height="100%" viewBox="0 0 329 372" version="1.1" xmlns="http://www.w3.org/2000/svg" xmlns:xlink="http://www.w3.org/1999/xlink" xml:space="preserve" xmlns:serif="http://www.serif.com/" style="fill-rule:evenodd;clip-rule:evenodd;stroke-linejoin:round;stroke-miterlimit:2;">
    <g transform="matrix(1,0,0,1,-2182.86,400.238)">
        <g transform="matrix(0.993102,-0.117252,0.117252,0.993102,-141.487,-1526.77)">
            <path d="M2191.51,1520.15C2191.07,1520.15 2190.76,1520.1 2190.56,1520L2190.34,1520.07C2190.24,1520.07 2190.15,1520.03 2190.05,1519.93C2189.95,1519.83 2189.88,1519.78 2189.83,1519.78C2187.14,1518.32 2185.51,1514.46 2184.92,1508.21C2184.68,1505.33 2184.56,1500.49 2184.56,1493.71C2184.56,1468.51 2186.26,1442.88 2189.68,1416.8C2190.07,1412.8 2190.27,1410.36 2190.27,1409.48C2190.12,1406.79 2189.93,1405.45 2189.68,1405.45L2189.32,1405.16C2188,1405.69 2187.27,1406.04 2187.12,1406.18C2186.97,1406.33 2186.7,1406.48 2186.31,1406.62C2182.65,1408.97 2180.11,1412.48 2178.7,1417.17C2178.55,1417.32 2178.43,1417.78 2178.33,1418.56L2177.96,1420.61C2177.87,1422.08 2177.53,1422.81 2176.94,1422.81C2176.6,1422.81 2176.26,1422.47 2175.91,1421.78C2175.77,1421.49 2175.67,1421.12 2175.62,1420.68C2175.62,1418.83 2176.03,1416.92 2176.87,1414.97C2178.53,1410.14 2182.09,1406.21 2187.56,1403.18C2188.19,1402.94 2188.73,1402.79 2189.17,1402.74C2189.27,1402.74 2189.34,1402.77 2189.39,1402.81C2190.07,1402.91 2190.43,1402.97 2190.45,1403C2190.48,1403.02 2190.5,1403.03 2190.53,1403.03C2190.55,1403.03 2190.59,1403.06 2190.64,1403.11C2191.61,1403.6 2192.2,1404.62 2192.39,1406.18L2192.47,1406.84C2192.56,1406.94 2192.61,1407.72 2192.61,1409.19C2192.61,1412.41 2192.15,1417.34 2191.22,1423.98C2189.22,1440.83 2187.78,1460.45 2186.9,1482.87L2186.83,1492.83C2186.83,1494.29 2186.85,1495.25 2186.9,1495.68L2186.83,1496.27L2187.05,1500.52C2187.05,1503.01 2187.07,1504.86 2187.12,1506.09L2187.12,1506.6C2187.8,1514.02 2189.37,1517.73 2191.81,1517.73C2194.3,1516.95 2197.84,1512.02 2202.43,1502.94C2205.85,1496.2 2209.19,1488.87 2212.46,1480.96C2216.56,1471.15 2221.89,1457.84 2228.43,1441.05C2232.38,1430.16 2237.49,1417.1 2243.74,1401.86C2244.22,1400.69 2244.71,1400.06 2245.2,1399.96C2245.74,1399.96 2246.01,1400.27 2246.01,1400.91C2246.01,1402.23 2245.74,1403.42 2245.2,1404.5L2231.58,1439.43C2224.69,1457.45 2218.95,1471.88 2214.37,1482.72C2203.82,1507.67 2196.2,1520.15 2191.51,1520.15Z" style="fill-rule:nonzero;stroke:black;stroke-width:0.83px;"/>
            <path d="M2234.36,1484.85C2234.9,1484.85 2235.2,1484.81 2235.28,1484.74C2235.35,1484.66 2235.48,1484.6 2235.68,1484.55C2236.9,1484.16 2239.71,1480.26 2244.1,1472.83C2244.93,1471.08 2246.57,1468.29 2249.01,1464.48L2248.79,1464.48C2248.3,1464.39 2247.84,1464.34 2247.4,1464.34C2245.45,1464.34 2243.59,1464.7 2241.83,1465.44C2241.73,1465.53 2241.47,1465.65 2241.03,1465.8C2240.44,1466.14 2239.85,1466.53 2239.27,1466.97C2239.07,1467.22 2238.85,1467.44 2238.61,1467.63C2238.36,1467.83 2238.23,1467.94 2238.21,1467.96C2238.18,1467.99 2238.13,1468 2238.06,1468C2237.99,1468 2237.88,1468.15 2237.73,1468.44C2237,1469.17 2236.59,1469.62 2236.52,1469.79C2236.45,1469.96 2236.26,1470.2 2235.97,1470.49C2235.58,1470.98 2235.39,1471.3 2235.39,1471.44C2235.19,1471.64 2235.02,1471.88 2234.87,1472.17C2232.82,1475.3 2231.75,1478.38 2231.65,1481.4C2231.65,1483.65 2232.55,1484.8 2234.36,1484.85ZM2253.4,1488.87C2252.33,1488.87 2251.62,1488.7 2251.28,1488.36C2250.99,1488.36 2250.13,1487.65 2248.72,1486.24C2248.18,1485.65 2247.68,1484.65 2247.22,1483.23C2246.75,1481.82 2246.52,1480.43 2246.52,1479.06C2246.52,1476.57 2246.76,1474.3 2247.25,1472.25L2243.44,1478.55C2240.76,1483.04 2238.27,1485.87 2235.97,1487.04L2235.83,1487.04L2235.83,1487.12L2234.95,1487.26C2232.85,1487.26 2231.26,1486.51 2230.19,1484.99C2230.04,1484.7 2229.92,1484.5 2229.82,1484.4C2229.43,1483.38 2229.23,1482.26 2229.23,1481.04C2229.77,1476.69 2231.16,1473.03 2233.41,1470.05C2233.51,1469.86 2234.24,1468.88 2235.61,1467.12C2239.07,1463.65 2243,1461.92 2247.4,1461.92C2247.98,1461.92 2248.52,1461.97 2249.01,1462.07C2249.3,1462.16 2249.6,1462.21 2249.89,1462.21C2250.18,1462.21 2250.64,1462.34 2251.28,1462.58C2251.43,1462.58 2251.59,1462.62 2251.76,1462.69C2251.93,1462.76 2252.02,1462.8 2252.05,1462.8C2252.07,1462.8 2252.11,1462.82 2252.16,1462.87C2252.65,1463.02 2252.89,1463.38 2252.89,1463.97C2250.5,1468.22 2249.11,1473 2248.72,1478.33C2248.72,1482.92 2250.03,1485.7 2252.67,1486.68C2252.87,1486.77 2253.11,1486.82 2253.4,1486.82C2255.7,1486.82 2258.38,1484.38 2261.46,1479.5L2268.64,1467.85C2269.18,1467.85 2269.44,1468.15 2269.44,1468.73C2265.59,1476.2 2261.92,1481.94 2258.46,1485.94C2256.5,1487.75 2255.09,1488.7 2254.21,1488.8L2253.4,1488.87Z" style="fill-rule:nonzero;stroke:black;stroke-width:0.83px;"/>
            <path d="M2265.12,1490.92C2264.93,1490.92 2264.66,1490.89 2264.32,1490.81C2263.97,1490.74 2263.69,1490.64 2263.47,1490.52C2263.26,1490.4 2263.14,1490.31 2263.14,1490.27C2264.9,1481.13 2266.9,1472.08 2269.15,1463.09C2269.25,1462.99 2269.39,1462.94 2269.59,1462.94C2270.81,1463.09 2271.42,1463.36 2271.42,1463.75C2269.81,1470.2 2268.32,1476.67 2266.95,1483.16L2274.2,1471C2275.77,1468.17 2277.74,1466.75 2280.14,1466.75C2281.16,1466.75 2282.01,1467.14 2282.66,1467.93C2283.32,1468.71 2283.73,1470.25 2283.87,1472.54C2283.87,1476.4 2284.1,1479.05 2284.57,1480.49C2285.03,1481.93 2285.8,1482.65 2286.88,1482.65C2288.93,1482.65 2292.42,1478.94 2297.35,1471.52C2297.4,1471.37 2298.25,1470.17 2299.91,1467.93C2300.06,1467.78 2300.2,1467.71 2300.35,1467.71C2300.4,1467.71 2300.51,1467.72 2300.68,1467.74C2300.85,1467.77 2301.01,1467.95 2301.16,1468.29C2301.16,1468.34 2301.18,1468.41 2301.23,1468.51C2301.28,1468.61 2301.3,1468.71 2301.3,1468.81C2301.3,1468.95 2299.94,1470.95 2297.2,1474.81L2296.32,1476.13C2292.76,1481.5 2289.61,1484.33 2286.88,1484.62C2284.78,1484.62 2283.34,1483.43 2282.55,1481.04C2282.11,1479.57 2281.89,1478.11 2281.89,1476.64C2281.89,1472.44 2281.55,1469.95 2280.87,1469.17C2280.58,1468.98 2280.21,1468.88 2279.77,1468.88C2278.55,1469.07 2277.65,1469.66 2277.06,1470.64C2276.77,1471.03 2275.69,1472.81 2273.84,1475.98L2266.51,1488.51C2265.93,1489.43 2265.62,1490.01 2265.6,1490.23C2265.57,1490.45 2265.55,1490.62 2265.53,1490.74C2265.5,1490.86 2265.37,1490.92 2265.12,1490.92Z" style="fill-rule:nonzero;stroke:black;stroke-width:0.83px;"/>
            <path d="M2298.67,1476.64C2302.33,1472.69 2305.06,1468.66 2306.87,1464.56C2306.97,1464.31 2307.1,1464.02 2307.27,1463.68C2307.44,1463.34 2307.53,1462.94 2307.53,1462.51L2307.31,1462.36C2305.65,1462.36 2304.16,1463.51 2302.84,1465.8C2300.84,1469.22 2299.45,1472.83 2298.67,1476.64ZM2302.55,1493.19C2302.21,1493.19 2301.89,1493.17 2301.6,1493.12C2298.76,1492.14 2297.11,1490.39 2296.62,1487.85C2296.28,1486.58 2296.1,1484.53 2296.1,1481.69C2296.35,1475.44 2298.03,1469.71 2301.16,1464.48C2302.87,1461.6 2304.77,1460.16 2306.87,1460.16C2308.63,1460.16 2309.61,1460.94 2309.8,1462.51C2309.7,1463.24 2309.51,1463.93 2309.21,1464.59C2308.92,1465.25 2308.78,1465.65 2308.78,1465.8C2307.11,1469.37 2304.99,1472.74 2302.4,1475.91C2300.3,1478.45 2298.89,1479.99 2298.15,1480.52C2298.06,1481.55 2298.01,1482.57 2298.01,1483.6C2298.01,1485.41 2298.33,1487.16 2298.96,1488.87C2299.84,1490.39 2300.99,1491.22 2302.4,1491.36C2304.4,1491.36 2307.24,1489.65 2310.9,1486.24C2315.15,1482.28 2319.03,1477.94 2322.54,1473.2C2324.3,1470.86 2325.43,1469.27 2325.91,1468.44C2326.06,1468.15 2326.28,1468 2326.57,1468C2327.01,1468 2327.23,1468.29 2327.23,1468.88C2327.23,1469.22 2326.03,1471.08 2323.64,1474.44C2313.93,1486.94 2306.89,1493.19 2302.55,1493.19Z" style="fill-rule:nonzero;stroke:black;stroke-width:0.83px;"/>
            <path d="M2349.42,1504.4C2350.55,1504.4 2351.6,1504.08 2352.57,1503.45C2355.41,1501.79 2357.19,1498.98 2357.92,1495.03C2358.12,1494 2358.21,1492.98 2358.21,1491.95C2358.21,1490.39 2358.02,1488.7 2357.63,1486.9L2356.38,1488.07C2350.91,1493.59 2348.18,1498.08 2348.18,1501.54L2348.33,1503.67C2348.57,1504.06 2348.94,1504.3 2349.42,1504.4ZM2325.77,1512.31C2326.6,1512.31 2327.67,1511.73 2328.99,1510.55C2332.16,1507.82 2334.16,1503.96 2334.99,1498.98L2334.99,1498.47C2335.04,1498.22 2335.07,1497.39 2335.07,1495.98C2332.53,1499.05 2331.02,1500.84 2330.53,1501.32C2326.72,1505.57 2324.82,1508.97 2324.82,1511.51L2325.18,1512.16C2325.43,1512.26 2325.62,1512.31 2325.77,1512.31ZM2325.69,1514.73C2324.96,1514.73 2324.16,1514.39 2323.28,1513.7C2322.74,1513.12 2322.47,1512.24 2322.47,1511.07C2322.47,1507.84 2325.11,1503.42 2330.38,1497.81C2331.45,1496.73 2332.87,1495.1 2334.63,1492.9C2333.99,1490.56 2332.77,1488.09 2330.97,1485.5C2327.6,1480.96 2325.64,1477.15 2325.11,1474.08C2325.01,1473.69 2324.96,1472.74 2324.96,1471.22C2325.25,1468.24 2326.35,1465.58 2328.26,1463.24L2328.33,1463.24L2328.33,1463.16C2330.19,1461.31 2332.09,1460.24 2334.04,1459.94L2335.51,1459.8C2336.24,1459.85 2336.95,1459.97 2337.63,1460.16C2337.83,1460.26 2337.95,1460.32 2338,1460.35C2338.05,1460.37 2338.12,1460.38 2338.22,1460.38C2338.22,1460.43 2338.49,1460.6 2339.02,1460.89C2341.03,1462.36 2342.03,1463.87 2342.03,1465.44L2342.1,1466.24C2342.1,1466.97 2341.81,1467.34 2341.22,1467.34C2340.59,1467.34 2340.07,1466.85 2339.68,1465.88C2339.63,1464.65 2338.9,1463.61 2337.49,1462.73C2337,1462.48 2336.63,1462.36 2336.39,1462.36C2336.39,1462.31 2336.31,1462.29 2336.17,1462.29L2335.95,1462.29L2335.8,1462.21C2333.7,1462.21 2331.8,1463.09 2330.09,1464.85C2329.7,1465.39 2329.45,1465.65 2329.36,1465.65L2329.14,1466.1C2328.84,1466.39 2328.7,1466.63 2328.7,1466.83C2327.87,1467.85 2327.4,1469.49 2327.3,1471.73L2327.38,1473.27L2328.11,1475.98C2328.65,1477.4 2329.38,1478.81 2330.31,1480.23L2331.48,1481.91C2332.02,1482.79 2332.6,1483.67 2333.24,1484.55C2334.65,1486.65 2335.73,1488.7 2336.46,1490.7C2337.34,1489.53 2338.32,1488.29 2339.39,1486.97C2341.1,1484.92 2341.99,1483.81 2342.06,1483.64C2342.14,1483.46 2343.54,1481.62 2346.28,1478.11C2348.67,1474.98 2349.94,1473.37 2350.08,1473.27C2349.16,1471.52 2348.69,1470.05 2348.69,1468.88L2348.62,1467.56C2348.62,1465.51 2349.13,1463.46 2350.16,1461.41C2350.25,1461.16 2350.39,1460.94 2350.56,1460.75C2350.73,1460.55 2350.86,1460.35 2350.96,1460.13C2351.06,1459.91 2351.43,1459.4 2352.06,1458.62C2352.4,1458.33 2352.57,1458.16 2352.57,1458.11C2354.18,1456.65 2356.14,1455.74 2358.43,1455.4C2360.29,1455.4 2361.75,1455.77 2362.83,1456.5C2364.73,1457.96 2365.68,1459.4 2365.68,1460.82L2365.76,1461.85C2365.76,1462.48 2365.46,1462.82 2364.88,1462.87C2364.44,1462.87 2364.05,1462.6 2363.71,1462.07C2363.51,1461.87 2363.4,1461.71 2363.38,1461.59C2363.35,1461.47 2363.34,1461.33 2363.34,1461.19C2363.34,1461.04 2363.32,1460.92 2363.27,1460.82C2363.22,1460.72 2363.19,1460.6 2363.19,1460.45C2363.19,1460.31 2363.16,1460.21 2363.08,1460.16C2363.01,1460.11 2362.83,1459.87 2362.53,1459.43C2361.9,1458.5 2361.24,1458.04 2360.56,1458.04C2360.17,1457.84 2359.7,1457.75 2359.16,1457.75C2357.36,1457.75 2355.62,1458.55 2353.97,1460.16C2353.62,1460.6 2353.42,1460.85 2353.34,1460.89C2353.27,1460.94 2353.16,1461.11 2353.01,1461.41C2351.89,1462.77 2351.23,1464.61 2351.03,1466.9C2351.03,1467.1 2351.01,1467.27 2350.96,1467.41C2351.06,1467.51 2351.13,1468.12 2351.18,1469.24C2351.18,1469.54 2351.23,1469.81 2351.33,1470.05L2351.4,1470.12C2351.4,1471.3 2352.96,1473.98 2356.09,1478.18C2357.36,1479.99 2358.26,1481.45 2358.8,1482.57C2361.44,1480.28 2364.61,1477.67 2368.32,1474.74C2373.55,1470.68 2376.18,1468.46 2376.23,1468.07C2376.57,1467.88 2376.84,1467.78 2377.04,1467.78C2377.72,1467.78 2378.06,1468.24 2378.06,1469.17C2378.01,1469.51 2377.87,1469.83 2377.62,1470.12L2369.78,1476.64C2365.98,1479.62 2362.61,1482.43 2359.68,1485.06C2360.31,1487.12 2360.63,1489.43 2360.63,1492.02C2360.63,1495.44 2359.73,1498.61 2357.92,1501.54C2356.8,1503.2 2355.31,1504.6 2353.45,1505.72C2352.23,1506.45 2350.99,1506.82 2349.72,1506.82C2348.06,1506.82 2346.89,1506.11 2346.2,1504.69C2345.96,1504.4 2345.84,1503.89 2345.84,1503.15C2345.84,1502.96 2345.82,1502.78 2345.8,1502.61C2345.77,1502.43 2345.74,1502.33 2345.69,1502.28C2345.69,1499.4 2346.57,1496.64 2348.33,1494C2349.79,1491.66 2352.01,1489 2354.99,1486.02L2356.89,1484.26C2356.21,1482.5 2355.06,1480.57 2353.45,1478.47L2351.62,1475.91L2351.18,1475.25C2350.3,1476.57 2348.08,1479.62 2344.52,1484.4L2337.12,1493.49C2337.32,1494.41 2337.44,1495.59 2337.49,1497C2337.49,1500.42 2336.66,1503.69 2334.99,1506.82C2333.53,1509.6 2331.53,1511.87 2328.99,1513.63C2327.91,1514.36 2326.82,1514.73 2325.69,1514.73Z" style="fill-rule:nonzero;stroke:black;stroke-width:0.83px;"/>
            <path d="M2375.86,1484.85C2376.4,1484.85 2376.71,1484.81 2376.78,1484.74C2376.85,1484.66 2376.99,1484.6 2377.18,1484.55C2378.4,1484.16 2381.21,1480.26 2385.61,1472.83C2386.44,1471.08 2388.07,1468.29 2390.51,1464.48L2390.29,1464.48C2389.8,1464.39 2389.34,1464.34 2388.9,1464.34C2386.95,1464.34 2385.09,1464.7 2383.34,1465.44C2383.24,1465.53 2382.97,1465.65 2382.53,1465.8C2381.94,1466.14 2381.36,1466.53 2380.77,1466.97C2380.58,1467.22 2380.36,1467.44 2380.11,1467.63C2379.87,1467.83 2379.73,1467.94 2379.71,1467.96C2379.68,1467.99 2379.64,1468 2379.56,1468C2379.49,1468 2379.38,1468.15 2379.23,1468.44C2378.5,1469.17 2378.1,1469.62 2378.03,1469.79C2377.95,1469.96 2377.77,1470.2 2377.48,1470.49C2377.09,1470.98 2376.89,1471.3 2376.89,1471.44C2376.7,1471.64 2376.52,1471.88 2376.38,1472.17C2374.33,1475.3 2373.25,1478.38 2373.15,1481.4C2373.15,1483.65 2374.06,1484.8 2375.86,1484.85ZM2394.91,1488.87C2393.83,1488.87 2393.12,1488.7 2392.78,1488.36C2392.49,1488.36 2391.64,1487.65 2390.22,1486.24C2389.68,1485.65 2389.18,1484.65 2388.72,1483.23C2388.26,1481.82 2388.02,1480.43 2388.02,1479.06C2388.02,1476.57 2388.27,1474.3 2388.76,1472.25L2384.95,1478.55C2382.26,1483.04 2379.77,1485.87 2377.48,1487.04L2377.33,1487.04L2377.33,1487.12L2376.45,1487.26C2374.35,1487.26 2372.76,1486.51 2371.69,1484.99C2371.54,1484.7 2371.42,1484.5 2371.32,1484.4C2370.93,1483.38 2370.74,1482.26 2370.74,1481.04C2371.28,1476.69 2372.67,1473.03 2374.91,1470.05C2375.01,1469.86 2375.74,1468.88 2377.11,1467.12C2380.58,1463.65 2384.51,1461.92 2388.9,1461.92C2389.49,1461.92 2390.03,1461.97 2390.51,1462.07C2390.81,1462.16 2391.1,1462.21 2391.39,1462.21C2391.68,1462.21 2392.15,1462.34 2392.78,1462.58C2392.93,1462.58 2393.09,1462.62 2393.26,1462.69C2393.43,1462.76 2393.53,1462.8 2393.55,1462.8C2393.58,1462.8 2393.61,1462.82 2393.66,1462.87C2394.15,1463.02 2394.39,1463.38 2394.39,1463.97C2392,1468.22 2390.61,1473 2390.22,1478.33C2390.22,1482.92 2391.54,1485.7 2394.18,1486.68C2394.37,1486.77 2394.61,1486.82 2394.91,1486.82C2397.2,1486.82 2399.89,1484.38 2402.96,1479.5L2410.14,1467.85C2410.68,1467.85 2410.95,1468.15 2410.95,1468.73C2407.09,1476.2 2403.43,1481.94 2399.96,1485.94C2398.01,1487.75 2396.59,1488.7 2395.71,1488.8L2394.91,1488.87Z" style="fill-rule:nonzero;stroke:black;stroke-width:0.83px;"/>
        </g>
        <g transform="matrix(0.997454,-0.0713086,0.0713086,0.997454,-49.0099,-1531.63)">
            <path d="M2195.53,1527.77C2194.41,1527.77 2193.85,1527.3 2193.85,1526.37L2207.25,1465.36L2221.02,1406.77C2199.49,1413.51 2187.14,1417.8 2183.96,1419.66C2180.45,1421.76 2178.35,1424.18 2177.66,1426.91C2177.57,1427.4 2177.3,1427.67 2176.86,1427.72C2176.07,1427.72 2175.59,1427.35 2175.39,1426.62C2175.39,1425.06 2176.32,1423.22 2178.18,1421.12C2180.47,1418.54 2184.45,1416.27 2190.11,1414.31C2200.17,1410.85 2211.11,1407.31 2222.93,1403.69L2248.41,1396.37C2259.2,1393.44 2271.66,1390.39 2285.77,1387.21C2286.35,1387.21 2286.65,1387.58 2286.65,1388.31C2286.65,1388.95 2286.28,1389.41 2285.55,1389.7C2268.8,1393.56 2251.15,1398.1 2232.59,1403.33L2223.66,1405.96L2209.45,1466.31L2196.12,1526.89C2195.97,1527.47 2195.78,1527.77 2195.53,1527.77Z" style="fill-rule:nonzero;stroke:black;stroke-width:0.63px;"/>
            <path d="M2232.74,1458.77C2234.01,1456.33 2235.3,1453.69 2236.62,1450.86C2241.51,1440.12 2245.56,1430.11 2248.78,1420.83C2251.08,1414.24 2252.32,1409.77 2252.52,1407.43C2251.3,1408.11 2250.05,1409.19 2248.78,1410.65C2246.68,1413.53 2244.83,1417.58 2243.21,1422.81C2238.87,1436.04 2235.38,1448.03 2232.74,1458.77ZM2222.27,1511.43C2221.97,1511.43 2221.69,1511.25 2221.43,1510.88C2221.16,1510.52 2221.02,1510.09 2221.02,1509.6C2222.83,1494.71 2225.51,1479.52 2229.08,1464.04C2229.47,1462.77 2229.76,1461.51 2229.96,1460.24C2233.33,1446.81 2236.28,1436.24 2238.82,1428.52C2241.21,1421.3 2242.73,1416.92 2243.36,1415.41C2245.8,1409.6 2248.98,1406.01 2252.88,1404.64C2252.93,1404.6 2253,1404.57 2253.1,1404.57C2254.32,1404.57 2254.93,1405.43 2254.93,1407.13C2254.93,1409.48 2253.62,1414.36 2250.98,1421.78C2247.37,1432.13 2243.24,1442.29 2238.6,1452.25C2235.03,1459.82 2232.47,1464.63 2230.91,1466.68L2230.69,1467.63C2228.3,1478.62 2226.69,1486.77 2225.86,1492.1C2227.61,1488.29 2229.76,1484.31 2232.3,1480.16C2232.4,1479.91 2232.47,1479.79 2232.52,1479.79C2234.23,1476.76 2236.28,1474.93 2238.67,1474.3C2238.97,1474.2 2239.28,1474.15 2239.62,1474.15C2242.12,1474.15 2243.36,1476.54 2243.36,1481.33C2243.36,1482.21 2243.19,1484.31 2242.85,1487.63C2242.65,1488.9 2242.55,1490.05 2242.55,1491.07L2242.63,1491.22C2242.97,1492.58 2243.51,1493.27 2244.24,1493.27C2246.14,1492.98 2248.83,1490.8 2252.3,1486.75C2257.08,1481.18 2261.38,1475.1 2265.19,1468.51C2265.43,1468.22 2265.65,1468.07 2265.85,1468.07C2266.33,1468.07 2266.58,1468.34 2266.58,1468.88C2266.58,1469.12 2266.53,1469.37 2266.43,1469.61C2262.72,1476.11 2258.4,1482.28 2253.47,1488.14C2249.56,1492.83 2246.39,1495.17 2243.95,1495.17C2243.41,1495.12 2242.92,1494.95 2242.48,1494.66C2242.34,1494.66 2242.19,1494.56 2242.04,1494.37C2241.36,1493.68 2240.89,1492.61 2240.65,1491.14C2240.6,1491 2240.58,1490.75 2240.58,1490.41C2240.58,1489.87 2240.7,1488.8 2240.94,1487.19C2241.19,1484.6 2241.31,1482.65 2241.31,1481.33C2241.31,1477.96 2240.82,1476.28 2239.85,1476.28C2238.14,1476.28 2236.35,1477.74 2234.5,1480.67C2229.32,1488.97 2225.83,1496.98 2224.03,1504.69L2224.03,1504.77C2223.93,1504.86 2223.68,1506.62 2223.29,1510.04C2223.15,1510.97 2222.8,1511.43 2222.27,1511.43Z" style="fill-rule:nonzero;stroke:black;stroke-width:0.63px;"/>
            <path d="M2276.03,1475.4C2276.08,1475.25 2276.1,1475.09 2276.1,1474.92C2276.1,1474.75 2276.12,1474.59 2276.17,1474.44C2276.27,1473.66 2276.32,1472.95 2276.32,1472.32C2276.32,1468.85 2275.59,1466.17 2274.12,1464.26C2272.95,1462.94 2271.56,1462.29 2269.95,1462.29C2269.17,1462.34 2268.46,1462.64 2267.82,1463.2C2267.19,1463.76 2266.87,1464.56 2266.87,1465.58C2266.87,1466.95 2267.38,1468.29 2268.41,1469.61C2270.61,1472.3 2273.15,1474.23 2276.03,1475.4ZM2269.36,1486.82C2268.19,1486.82 2267.07,1486.41 2265.99,1485.58C2264.77,1484.4 2263.99,1482.99 2263.65,1481.33C2263.55,1480.99 2263.5,1480.72 2263.5,1480.52C2263.26,1480.28 2263.14,1479.01 2263.14,1476.71C2263.14,1473.69 2263.84,1470.76 2265.26,1467.93L2265.33,1467.71C2265.09,1467.07 2264.97,1466.44 2264.97,1465.8C2264.97,1463.95 2265.63,1462.51 2266.95,1461.48C2267.92,1460.8 2268.99,1460.41 2270.17,1460.31C2272.51,1460.41 2274.41,1461.41 2275.88,1463.31C2277.54,1465.61 2278.37,1468.59 2278.37,1472.25C2278.37,1473.47 2278.27,1474.69 2278.08,1475.91L2279.18,1475.98C2282.35,1475.98 2285.6,1474.2 2288.92,1470.64C2290.43,1468.98 2291.28,1468.15 2291.48,1468.15C2291.87,1468.24 2292.07,1468.56 2292.07,1469.1C2292.07,1469.73 2290.63,1471.37 2287.74,1474.01C2285.11,1476.45 2282.2,1477.67 2279.03,1477.67L2277.71,1477.59C2277.42,1478.72 2277,1479.79 2276.47,1480.82C2274.86,1484.67 2272.49,1486.68 2269.36,1486.82ZM2269.36,1484.62C2270.19,1484.62 2270.97,1484.36 2271.7,1483.82C2273.56,1482.31 2274.88,1480.08 2275.66,1477.15C2275.61,1477.11 2275.54,1477.08 2275.44,1477.08L2273.61,1476.2C2270.49,1474.35 2268.19,1472.42 2266.72,1470.42C2265.85,1472.56 2265.41,1474.74 2265.41,1476.93C2265.41,1480.45 2266.16,1482.82 2267.68,1484.04C2268.16,1484.43 2268.73,1484.62 2269.36,1484.62Z" style="fill-rule:nonzero;stroke:black;stroke-width:0.63px;"/>
            <path d="M2287.45,1491.66C2287.01,1491.66 2286.6,1491.47 2286.21,1491.11C2285.82,1490.74 2285.62,1490.24 2285.62,1489.61L2285.77,1488.51C2286.74,1483.04 2287.4,1479.62 2287.74,1478.25C2289.11,1472.44 2290.85,1466.8 2292.95,1461.33C2293.19,1460.75 2293.48,1460.45 2293.82,1460.45C2294.7,1460.45 2295.14,1460.94 2295.14,1461.92C2295.14,1462.21 2295.09,1462.46 2295,1462.65C2291.97,1470.32 2289.8,1478.18 2288.48,1486.24C2291.07,1479.94 2293.82,1474.4 2296.75,1469.61L2296.83,1469.46C2297.07,1469.17 2297.53,1468.46 2298.22,1467.34C2299.05,1466.02 2300,1465.36 2301.08,1465.36C2303.03,1465.36 2304.01,1466.34 2304.01,1468.29L2301.88,1481.91C2301.88,1482.55 2301.95,1483.01 2302.1,1483.31L2302.25,1483.38C2302.54,1482.94 2303.03,1482.01 2303.71,1480.6C2307.47,1473.22 2310.16,1468.37 2311.77,1466.02C2311.82,1465.97 2311.84,1465.94 2311.84,1465.91C2311.84,1465.89 2311.85,1465.84 2311.88,1465.77C2311.9,1465.69 2312.12,1465.55 2312.54,1465.33C2312.95,1465.11 2313.33,1465 2313.67,1465C2314.65,1465 2315.41,1465.8 2315.94,1467.41C2316.24,1469.81 2316.38,1471.47 2316.38,1472.39L2316.31,1475.47C2316.31,1477.37 2316.48,1479.2 2316.82,1480.96C2317.02,1481.31 2317.12,1481.6 2317.12,1481.84C2317.51,1482.62 2318.09,1483.01 2318.87,1483.01C2319.75,1482.62 2320.68,1481.89 2321.66,1480.82C2322.34,1480.13 2323.8,1478.38 2326.05,1475.54C2327.91,1473.3 2329.69,1471 2331.4,1468.66C2331.79,1468.22 2332.08,1468 2332.28,1468C2332.72,1468 2332.94,1468.27 2332.94,1468.81C2332.94,1469.44 2330.98,1472.2 2327.08,1477.08C2324.1,1480.84 2322.16,1483.08 2321.25,1483.78C2320.35,1484.49 2319.41,1484.85 2318.43,1484.85C2317.21,1484.85 2316.26,1484.16 2315.58,1482.79C2315.43,1482.55 2315.33,1482.36 2315.28,1482.21C2315.24,1482.06 2315.2,1481.95 2315.18,1481.88C2315.15,1481.81 2315.14,1481.72 2315.14,1481.62C2315.14,1481.52 2315.11,1481.43 2315.07,1481.33C2314.62,1480.01 2314.41,1478.23 2314.41,1475.98L2314.48,1472.76L2314.41,1469.9C2314.36,1469.56 2314.33,1469.35 2314.33,1469.28C2314.33,1469.21 2314.31,1469.15 2314.26,1469.1C2314.26,1468.81 2314.21,1468.46 2314.11,1468.07C2314.06,1467.93 2314.03,1467.77 2314,1467.6C2313.98,1467.42 2313.84,1467.19 2313.6,1466.9L2313.6,1466.97L2313.53,1466.97C2312.16,1468.63 2310.23,1471.97 2307.74,1476.97C2305.25,1481.98 2303.98,1484.48 2303.93,1484.48C2303.83,1484.82 2303.64,1485.06 2303.35,1485.21L2303.35,1485.28L2302.76,1485.5C2302.17,1485.5 2301.69,1485.41 2301.3,1485.21C2300.32,1484.23 2299.83,1483.33 2299.83,1482.5C2299.83,1481.62 2300.42,1477.57 2301.59,1470.34L2301.88,1468.29C2301.88,1468 2301.87,1467.84 2301.85,1467.82C2301.82,1467.79 2301.81,1467.77 2301.81,1467.74C2301.81,1467.72 2301.78,1467.68 2301.74,1467.63L2301.3,1467.41C2300.95,1467.41 2300.61,1467.61 2300.27,1468L2300.27,1468.07L2300.2,1468.07C2295.36,1475.98 2291.8,1483.21 2289.5,1489.75C2289.16,1491.02 2288.48,1491.66 2287.45,1491.66Z" style="fill-rule:nonzero;stroke:black;stroke-width:0.63px;"/>
            <path d="M2331.03,1484.85C2331.57,1484.85 2331.87,1484.81 2331.95,1484.74C2332.02,1484.66 2332.16,1484.6 2332.35,1484.55C2333.57,1484.16 2336.38,1480.26 2340.77,1472.83C2341.6,1471.08 2343.24,1468.29 2345.68,1464.48L2345.46,1464.48C2344.97,1464.39 2344.51,1464.34 2344.07,1464.34C2342.12,1464.34 2340.26,1464.7 2338.5,1465.44C2338.41,1465.53 2338.14,1465.65 2337.7,1465.8C2337.11,1466.14 2336.53,1466.53 2335.94,1466.97C2335.74,1467.22 2335.52,1467.44 2335.28,1467.63C2335.03,1467.83 2334.9,1467.94 2334.88,1467.96C2334.85,1467.99 2334.8,1468 2334.73,1468C2334.66,1468 2334.55,1468.15 2334.4,1468.44C2333.67,1469.17 2333.26,1469.62 2333.19,1469.79C2333.12,1469.96 2332.94,1470.2 2332.64,1470.49C2332.25,1470.98 2332.06,1471.3 2332.06,1471.44C2331.86,1471.64 2331.69,1471.88 2331.54,1472.17C2329.49,1475.3 2328.42,1478.38 2328.32,1481.4C2328.32,1483.65 2329.22,1484.8 2331.03,1484.85ZM2350.07,1488.87C2349,1488.87 2348.29,1488.7 2347.95,1488.36C2347.66,1488.36 2346.8,1487.65 2345.39,1486.24C2344.85,1485.65 2344.35,1484.65 2343.89,1483.23C2343.42,1481.82 2343.19,1480.43 2343.19,1479.06C2343.19,1476.57 2343.43,1474.3 2343.92,1472.25L2340.11,1478.55C2337.43,1483.04 2334.94,1485.87 2332.64,1487.04L2332.5,1487.04L2332.5,1487.12L2331.62,1487.26C2329.52,1487.26 2327.93,1486.51 2326.86,1484.99C2326.71,1484.7 2326.59,1484.5 2326.49,1484.4C2326.1,1483.38 2325.91,1482.26 2325.91,1481.04C2326.44,1476.69 2327.83,1473.03 2330.08,1470.05C2330.18,1469.86 2330.91,1468.88 2332.28,1467.12C2335.74,1463.65 2339.67,1461.92 2344.07,1461.92C2344.66,1461.92 2345.19,1461.97 2345.68,1462.07C2345.97,1462.16 2346.27,1462.21 2346.56,1462.21C2346.85,1462.21 2347.32,1462.34 2347.95,1462.58C2348.1,1462.58 2348.26,1462.62 2348.43,1462.69C2348.6,1462.76 2348.7,1462.8 2348.72,1462.8C2348.74,1462.8 2348.78,1462.82 2348.83,1462.87C2349.32,1463.02 2349.56,1463.38 2349.56,1463.97C2347.17,1468.22 2345.78,1473 2345.39,1478.33C2345.39,1482.92 2346.7,1485.7 2349.34,1486.68C2349.54,1486.77 2349.78,1486.82 2350.07,1486.82C2352.37,1486.82 2355.05,1484.38 2358.13,1479.5L2365.31,1467.85C2365.85,1467.85 2366.12,1468.15 2366.12,1468.73C2362.26,1476.2 2358.6,1481.94 2355.13,1485.94C2353.18,1487.75 2351.76,1488.7 2350.88,1488.8L2350.07,1488.87Z" style="fill-rule:nonzero;stroke:black;stroke-width:0.63px;"/>
            <path d="M2364.28,1512.09C2365.07,1512.09 2365.63,1511.92 2365.97,1511.58L2366.41,1511.36L2366.48,1511.36L2366.48,1511.29C2367.21,1510.75 2367.9,1510.16 2368.53,1509.53C2372,1506.06 2373.73,1502.03 2373.73,1497.44L2373.73,1495.98L2373.66,1496.05C2373.51,1496.2 2373.38,1496.36 2373.26,1496.53C2373.13,1496.7 2371.73,1498.25 2369.04,1501.18C2367.38,1503.03 2366.07,1504.77 2365.09,1506.38C2365.04,1506.52 2364.95,1506.68 2364.83,1506.85C2364.71,1507.03 2364.65,1507.15 2364.65,1507.22C2364.65,1507.29 2364.64,1507.36 2364.61,1507.4C2364.59,1507.45 2364.55,1507.48 2364.5,1507.48C2364.21,1508.06 2364.01,1508.55 2363.92,1508.94L2363.41,1510.85C2363.55,1511.68 2363.84,1512.09 2364.28,1512.09ZM2364.14,1514.51C2363.65,1514.51 2362.99,1514.24 2362.16,1513.7L2362.09,1513.56C2361.4,1512.77 2361.06,1511.85 2361.06,1510.77C2361.06,1510.09 2361.1,1509.66 2361.17,1509.49C2361.24,1509.32 2361.29,1509.2 2361.32,1509.12C2361.34,1509.05 2361.35,1508.99 2361.35,1508.94L2361.94,1507.33L2362.38,1506.45C2363.65,1503.57 2366.63,1499.79 2371.32,1495.1C2371.61,1494.81 2371.77,1494.63 2371.79,1494.59C2371.82,1494.54 2372.29,1493.93 2373.22,1492.76C2372.93,1491 2371.44,1488.07 2368.75,1483.97C2366.21,1480.5 2364.6,1477.35 2363.92,1474.52C2363.82,1474.42 2363.77,1474.15 2363.77,1473.71C2363.72,1473.61 2363.7,1473.42 2363.7,1473.13L2363.62,1473.05L2363.55,1471.88C2363.55,1469.59 2363.97,1467.73 2364.8,1466.31C2364.99,1465.97 2365.16,1465.65 2365.31,1465.36C2365.45,1465.07 2365.63,1464.78 2365.82,1464.48L2365.97,1464.19L2366.12,1464.12C2366.16,1464.12 2366.21,1464.06 2366.26,1463.93C2366.31,1463.81 2366.46,1463.63 2366.7,1463.38L2366.92,1463.09L2366.99,1462.94C2366.99,1462.85 2367.14,1462.73 2367.43,1462.58C2369.24,1460.63 2371.58,1459.65 2374.46,1459.65C2375,1459.65 2375.37,1459.7 2375.56,1459.8C2375.95,1459.8 2376.54,1459.99 2377.32,1460.38C2379.62,1461.8 2380.76,1463.65 2380.76,1465.95C2380.76,1466.73 2380.47,1467.12 2379.88,1467.12C2379.25,1467.12 2378.74,1466.61 2378.35,1465.58C2377.86,1463.97 2377.03,1462.9 2375.86,1462.36C2375.12,1462.12 2374.56,1461.99 2374.17,1461.99C2372.37,1461.99 2370.56,1462.87 2368.75,1464.63C2368.56,1464.83 2368.46,1464.95 2368.46,1465C2368.07,1465.34 2367.8,1465.73 2367.65,1466.17C2367.55,1466.31 2367.47,1466.45 2367.4,1466.57C2367.32,1466.69 2367.26,1466.8 2367.21,1466.9C2367.16,1467 2367.14,1467.07 2367.14,1467.12C2366.85,1467.66 2366.6,1468.22 2366.41,1468.81C2366.41,1469.15 2366.36,1469.32 2366.26,1469.32L2365.97,1471.81L2366.12,1473.27C2366.16,1473.42 2366.19,1473.58 2366.19,1473.75C2366.19,1473.92 2366.21,1474.05 2366.26,1474.15C2366.31,1474.25 2366.33,1474.35 2366.33,1474.44C2366.33,1475.57 2367.8,1478.28 2370.73,1482.57C2373.22,1486.29 2374.68,1488.95 2375.12,1490.56L2376.37,1489.09L2376.37,1489.02L2377.25,1488.07C2377.83,1487.34 2378.88,1486.14 2380.4,1484.48C2385.57,1478.86 2390.21,1473.47 2394.31,1468.29C2394.66,1467.95 2394.92,1467.78 2395.12,1467.78C2395.85,1467.78 2396.22,1468.22 2396.22,1469.1C2391.38,1475.06 2386.5,1480.96 2381.57,1486.82C2379.76,1488.63 2377.86,1490.8 2375.86,1493.34C2376.05,1494.41 2376.15,1495.54 2376.15,1496.71C2376.15,1501.69 2374.54,1506.13 2371.32,1510.04C2368.82,1513.02 2366.43,1514.51 2364.14,1514.51Z" style="fill-rule:nonzero;stroke:black;stroke-width:0.63px;"/>
        </g>
        <g transform="matrix(0.997454,-0.0713086,0.0713086,0.997454,-138.3,-1386.98)">
            <path d="M2238.72,1498.38C2238.64,1498.34 2238.57,1498.32 2238.51,1498.32C2238.45,1498.32 2238.29,1498.28 2238.05,1498.2C2237.81,1498.12 2237.64,1498.08 2237.56,1498.08C2235.49,1496.94 2234.39,1494.88 2234.27,1491.91C2234.27,1490.61 2234.67,1486.7 2235.49,1480.19C2237.16,1469.53 2239.74,1458.99 2243.24,1448.58C2246.98,1437.67 2251.62,1425.75 2257.15,1412.81L2263.01,1399.57C2263.79,1397.98 2264.38,1397.17 2264.78,1397.12C2265.11,1397.12 2265.27,1397.47 2265.27,1398.16C2265.27,1398.89 2264.97,1400.01 2264.36,1401.52C2259.19,1413.36 2255.1,1422.86 2252.09,1430.02C2245.78,1445.69 2241.22,1460.66 2238.42,1474.94C2237.24,1481.25 2236.59,1485.81 2236.46,1488.62C2236.46,1489.11 2236.4,1489.67 2236.28,1490.33C2236.28,1493.01 2236.91,1494.94 2238.17,1496.12L2239.09,1496.43L2240.43,1495.88C2242.83,1494.41 2246.15,1490.08 2250.38,1482.88C2253.92,1477.02 2258.5,1468.64 2264.11,1457.73C2264.44,1457 2266.02,1453.95 2268.87,1448.58C2272.7,1441.29 2275.22,1437.65 2276.44,1437.65C2277.05,1437.65 2277.5,1437.88 2277.78,1438.32L2277.97,1438.81C2278.58,1440.11 2279.29,1445.53 2280.1,1455.05C2281.16,1465.83 2282.22,1474.19 2283.28,1480.13C2284.09,1484.93 2285.13,1488.41 2286.39,1490.57C2286.88,1491.46 2287.3,1491.91 2287.67,1491.91L2288.04,1491.97L2288.04,1491.91L2288.22,1491.91C2290.38,1491.18 2293.1,1487.58 2296.4,1481.11C2298.51,1476.88 2300.39,1472.67 2302.01,1468.48C2308.32,1452.65 2312.84,1437.67 2315.56,1423.55C2316.87,1417.16 2317.52,1412.02 2317.52,1408.11C2317.52,1405.3 2317.13,1403.17 2316.36,1401.7C2316.24,1401.62 2316.16,1401.49 2316.14,1401.31C2316.12,1401.12 2315.77,1400.66 2315.08,1399.93C2313.73,1398.71 2312.45,1398.06 2311.23,1397.98L2310.19,1398.04C2309.46,1398.04 2309.05,1398.08 2308.97,1398.16L2308.42,1398.22C2308.06,1398.22 2307.85,1398.08 2307.81,1397.8C2307.81,1397.59 2308.02,1397.29 2308.42,1396.88C2308.99,1396.31 2309.72,1396.01 2310.62,1395.96C2311.11,1395.96 2311.84,1396.09 2312.82,1396.33C2313.43,1396.33 2314.51,1396.92 2316.05,1398.1C2316.34,1398.31 2316.51,1398.48 2316.57,1398.62C2316.63,1398.76 2316.93,1399.1 2317.46,1399.63C2317.78,1400.03 2318.05,1400.56 2318.25,1401.21C2319.11,1402.8 2319.53,1405.1 2319.53,1408.11C2319.53,1412.38 2318.78,1418.06 2317.27,1425.14C2314.38,1439.46 2309.78,1454.51 2303.45,1470.28C2297.12,1486.04 2291.9,1493.93 2287.79,1493.93C2286.9,1493.93 2286,1493.38 2285.11,1492.28C2282.63,1488.9 2280.59,1479.46 2279,1463.96L2277.42,1448.33C2276.97,1444.1 2276.58,1441.36 2276.26,1440.09C2274.79,1441.8 2271.52,1447.62 2266.43,1457.55L2259.17,1471.47C2254.53,1480.01 2250.58,1486.62 2247.33,1491.3C2243.99,1495.9 2241.43,1498.24 2239.64,1498.32L2238.72,1498.38Z" style="fill-rule:nonzero;stroke:black;stroke-width:1.04px;"/>
            <path d="M2320.69,1463.78C2323.74,1460.48 2326.02,1457.12 2327.53,1453.7C2327.61,1453.5 2327.72,1453.26 2327.86,1452.97C2328.01,1452.69 2328.08,1452.36 2328.08,1452L2327.89,1451.87C2326.51,1451.87 2325.27,1452.83 2324.17,1454.74C2322.5,1457.59 2321.34,1460.6 2320.69,1463.78ZM2323.93,1477.57C2323.64,1477.57 2323.38,1477.55 2323.13,1477.51C2320.77,1476.69 2319.39,1475.23 2318.98,1473.11C2318.7,1472.06 2318.55,1470.35 2318.55,1467.99C2318.76,1462.78 2320.16,1458 2322.77,1453.64C2324.19,1451.24 2325.78,1450.04 2327.53,1450.04C2328.99,1450.04 2329.81,1450.69 2329.97,1452C2329.89,1452.61 2329.72,1453.19 2329.48,1453.74C2329.24,1454.28 2329.11,1454.62 2329.11,1454.74C2327.73,1457.71 2325.96,1460.52 2323.8,1463.16C2322.05,1465.28 2320.88,1466.56 2320.26,1467.01C2320.18,1467.87 2320.14,1468.72 2320.14,1469.57C2320.14,1471.08 2320.41,1472.54 2320.94,1473.97C2321.67,1475.23 2322.62,1475.92 2323.8,1476.04C2325.47,1476.04 2327.83,1474.62 2330.88,1471.77C2334.42,1468.48 2337.66,1464.85 2340.59,1460.91C2342.05,1458.95 2342.99,1457.63 2343.4,1456.94C2343.52,1456.69 2343.7,1456.57 2343.95,1456.57C2344.31,1456.57 2344.49,1456.82 2344.49,1457.31C2344.49,1457.59 2343.5,1459.14 2341.5,1461.94C2333.41,1472.36 2327.55,1477.57 2323.93,1477.57Z" style="fill-rule:nonzero;stroke:black;stroke-width:1.04px;"/>
            <path d="M2359.27,1450.71C2360.45,1448.48 2361.73,1445.83 2363.11,1442.78C2366.81,1434.68 2370.15,1426.28 2373.12,1417.57C2374.99,1412.16 2376.01,1408.42 2376.17,1406.34C2373.73,1407.64 2371.7,1410.35 2370.07,1414.46C2368.44,1418.57 2366.26,1425.36 2363.54,1434.85C2362.72,1437.82 2362.16,1439.79 2361.83,1440.77C2361.1,1443.74 2360.32,1446.69 2359.51,1449.62L2359.27,1450.71ZM2349.5,1498.93C2348.73,1498.93 2348.32,1498.36 2348.28,1497.22C2349.91,1485.1 2352.04,1473.11 2354.69,1461.27C2350.01,1467.87 2346.37,1471.44 2343.76,1472.02C2342.38,1472.02 2341.28,1471.65 2340.47,1470.92C2339.94,1470.47 2339.63,1470.04 2339.55,1469.63C2339.51,1469.55 2339.49,1469.5 2339.49,1469.48C2339.49,1469.46 2339.46,1469.42 2339.4,1469.36C2339.34,1469.3 2339.31,1469.19 2339.31,1469.02C2339.1,1468.62 2339,1467.97 2339,1467.07C2339,1465.97 2339.08,1465.24 2339.25,1464.87C2339.98,1462.03 2341.08,1459.61 2342.54,1457.61C2342.62,1457.41 2342.7,1457.27 2342.79,1457.18C2342.87,1457.1 2342.94,1457.01 2343,1456.91C2343.06,1456.81 2343.13,1456.72 2343.21,1456.63C2343.78,1455.94 2344.13,1455.51 2344.25,1455.32C2344.37,1455.14 2344.49,1455.03 2344.62,1454.99C2344.7,1454.82 2344.84,1454.68 2345.04,1454.56C2345.04,1454.52 2345.05,1454.48 2345.08,1454.44C2345.1,1454.4 2345.41,1454.13 2346.02,1453.64C2346.02,1453.56 2346.16,1453.46 2346.45,1453.34C2347.26,1452.65 2348.2,1452.14 2349.26,1451.81C2350.76,1451.24 2352.21,1450.96 2353.59,1450.96C2354.57,1450.96 2355.73,1451.08 2357.07,1451.32C2357.07,1451.2 2357.09,1451.1 2357.13,1451.02L2357.13,1450.96C2358.88,1443.67 2361.73,1433.66 2365.67,1420.93L2368.24,1413.67C2370.39,1408.38 2373.14,1405.16 2376.48,1404.02C2376.52,1403.98 2376.58,1403.96 2376.66,1403.96C2377.11,1403.96 2377.51,1404.14 2377.88,1404.51C2377.88,1404.55 2377.92,1404.61 2378,1404.69C2378.13,1405.02 2378.19,1405.49 2378.19,1406.1C2378.19,1407.97 2377.13,1412.06 2375.01,1418.37C2372.04,1427.07 2368.62,1435.62 2364.76,1444C2362.52,1448.92 2360.39,1453.01 2358.35,1456.27L2358.29,1456.33C2358.17,1456.53 2358.03,1456.69 2357.86,1456.82L2357.86,1456.88L2357.74,1457C2354.36,1471.97 2351.86,1485.55 2350.23,1497.71C2350.11,1498.53 2349.87,1498.93 2349.5,1498.93ZM2343.21,1470C2343.58,1470 2343.79,1469.98 2343.85,1469.94C2343.91,1469.9 2344.03,1469.88 2344.19,1469.88L2346.14,1468.48C2347.4,1467.3 2349.22,1465.22 2351.58,1462.25L2352.92,1460.3L2355.85,1456.27C2356.01,1455.74 2356.13,1455.27 2356.21,1454.86L2356.58,1453.28L2356.03,1453.15C2355.26,1452.99 2354.53,1452.91 2353.83,1452.91C2352.45,1452.91 2350.9,1453.26 2349.2,1453.95C2349.15,1453.99 2349,1454.07 2348.74,1454.19C2348.47,1454.32 2348.01,1454.62 2347.36,1455.11C2345.86,1456.41 2344.82,1457.59 2344.25,1458.65C2343.07,1459.83 2342.07,1462.01 2341.26,1465.18C2341.14,1465.55 2341.08,1465.89 2341.08,1466.22C2341.04,1466.3 2341.02,1466.62 2341.02,1467.19C2341.06,1467.64 2341.08,1467.92 2341.08,1468.02C2341.08,1468.12 2341.1,1468.22 2341.14,1468.32C2341.18,1468.42 2341.2,1468.54 2341.2,1468.66C2341.2,1468.78 2341.34,1468.96 2341.63,1469.21C2341.63,1469.29 2341.66,1469.35 2341.72,1469.39C2341.78,1469.43 2341.97,1469.54 2342.3,1469.73C2342.62,1469.91 2342.93,1470 2343.21,1470Z" style="fill-rule:nonzero;stroke:black;stroke-width:1.04px;"/>
            <path d="M2383.99,1450.71C2385.16,1448.48 2386.45,1445.83 2387.83,1442.78C2391.53,1434.68 2394.87,1426.28 2397.84,1417.57C2399.71,1412.16 2400.73,1408.42 2400.89,1406.34C2398.45,1407.64 2396.42,1410.35 2394.79,1414.46C2393.16,1418.57 2390.98,1425.36 2388.26,1434.85C2387.44,1437.82 2386.87,1439.79 2386.55,1440.77C2385.82,1443.74 2385.04,1446.69 2384.23,1449.62L2383.99,1450.71ZM2374.22,1498.93C2373.45,1498.93 2373.04,1498.36 2373,1497.22C2374.63,1485.1 2376.76,1473.11 2379.41,1461.27C2374.73,1467.87 2371.09,1471.44 2368.48,1472.02C2367.1,1472.02 2366,1471.65 2365.19,1470.92C2364.66,1470.47 2364.35,1470.04 2364.27,1469.63C2364.23,1469.55 2364.21,1469.5 2364.21,1469.48C2364.21,1469.46 2364.18,1469.42 2364.12,1469.36C2364.06,1469.3 2364.03,1469.19 2364.03,1469.02C2363.82,1468.62 2363.72,1467.97 2363.72,1467.07C2363.72,1465.97 2363.8,1465.24 2363.97,1464.87C2364.7,1462.03 2365.8,1459.61 2367.26,1457.61C2367.34,1457.41 2367.42,1457.27 2367.51,1457.18C2367.59,1457.1 2367.66,1457.01 2367.72,1456.91C2367.78,1456.81 2367.85,1456.72 2367.93,1456.63C2368.5,1455.94 2368.85,1455.51 2368.97,1455.32C2369.09,1455.14 2369.21,1455.03 2369.34,1454.99C2369.42,1454.82 2369.56,1454.68 2369.76,1454.56C2369.76,1454.52 2369.77,1454.48 2369.79,1454.44C2369.82,1454.4 2370.13,1454.13 2370.74,1453.64C2370.74,1453.56 2370.88,1453.46 2371.17,1453.34C2371.98,1452.65 2372.92,1452.14 2373.97,1451.81C2375.48,1451.24 2376.93,1450.96 2378.31,1450.96C2379.28,1450.96 2380.45,1451.08 2381.79,1451.32C2381.79,1451.2 2381.81,1451.1 2381.85,1451.02L2381.85,1450.96C2383.6,1443.67 2386.45,1433.66 2390.39,1420.93L2392.96,1413.67C2395.11,1408.38 2397.86,1405.16 2401.2,1404.02C2401.24,1403.98 2401.3,1403.96 2401.38,1403.96C2401.83,1403.96 2402.23,1404.14 2402.6,1404.51C2402.6,1404.55 2402.64,1404.61 2402.72,1404.69C2402.85,1405.02 2402.91,1405.49 2402.91,1406.1C2402.91,1407.97 2401.85,1412.06 2399.73,1418.37C2396.76,1427.07 2393.34,1435.62 2389.48,1444C2387.24,1448.92 2385.1,1453.01 2383.07,1456.27L2383.01,1456.33C2382.89,1456.53 2382.74,1456.69 2382.58,1456.82L2382.58,1456.88L2382.46,1457C2379.08,1471.97 2376.58,1485.55 2374.95,1497.71C2374.83,1498.53 2374.59,1498.93 2374.22,1498.93ZM2367.93,1470C2368.3,1470 2368.51,1469.98 2368.57,1469.94C2368.64,1469.9 2368.75,1469.88 2368.91,1469.88L2370.86,1468.48C2372.12,1467.3 2373.93,1465.22 2376.29,1462.25L2377.64,1460.3L2380.57,1456.27C2380.73,1455.74 2380.85,1455.27 2380.93,1454.86L2381.3,1453.28L2380.75,1453.15C2379.98,1452.99 2379.24,1452.91 2378.55,1452.91C2377.17,1452.91 2375.62,1453.26 2373.91,1453.95C2373.87,1453.99 2373.72,1454.07 2373.46,1454.19C2373.19,1454.32 2372.73,1454.62 2372.08,1455.11C2370.58,1456.41 2369.54,1457.59 2368.97,1458.65C2367.79,1459.83 2366.79,1462.01 2365.98,1465.18C2365.86,1465.55 2365.8,1465.89 2365.8,1466.22C2365.76,1466.3 2365.74,1466.62 2365.74,1467.19C2365.78,1467.64 2365.8,1467.92 2365.8,1468.02C2365.8,1468.12 2365.82,1468.22 2365.86,1468.32C2365.9,1468.42 2365.92,1468.54 2365.92,1468.66C2365.92,1468.78 2366.06,1468.96 2366.35,1469.21C2366.35,1469.29 2366.38,1469.35 2366.44,1469.39C2366.5,1469.43 2366.69,1469.54 2367.02,1469.73C2367.34,1469.91 2367.65,1470 2367.93,1470Z" style="fill-rule:nonzero;stroke:black;stroke-width:1.04px;"/>
            <path d="M2393.87,1473.05C2392,1473.05 2390.82,1472.16 2390.33,1470.37C2390.17,1469.59 2390.09,1468.78 2390.09,1467.93C2390.09,1463.86 2390.49,1459.99 2391.31,1456.33C2391.39,1456.17 2391.51,1456.09 2391.68,1456.09C2391.88,1456.09 2392.1,1456.13 2392.35,1456.21C2392.59,1456.29 2392.79,1456.38 2392.96,1456.48C2393.12,1456.58 2393.2,1456.69 2393.2,1456.82C2392.47,1460.03 2392.06,1463.27 2391.98,1466.52L2391.92,1467.32C2391.92,1469.15 2392.08,1470.26 2392.41,1470.64C2392.73,1471.03 2393.14,1471.22 2393.63,1471.22C2394.36,1471.22 2395.11,1471 2395.89,1470.55L2397.84,1469.15C2402.32,1465.81 2406.1,1461.62 2409.19,1456.57C2409.27,1456.49 2409.36,1456.45 2409.44,1456.45C2409.8,1456.45 2410.13,1456.65 2410.41,1457.06L2410.47,1457.31C2407.99,1461.46 2404.74,1465.36 2400.71,1469.02C2400.46,1469.27 2399.98,1469.65 2399.24,1470.18L2398.33,1470.92C2396.58,1472.26 2395.09,1472.97 2393.87,1473.05ZM2393.69,1454.25L2393.38,1454.19C2392.29,1453.95 2391.74,1453.81 2391.74,1453.77L2392.22,1451.51C2392.47,1451.59 2392.69,1451.63 2392.9,1451.63C2393.71,1451.83 2394.14,1451.95 2394.18,1452L2393.69,1454.25Z" style="fill-rule:nonzero;stroke:black;stroke-width:1.04px;"/>
            <path d="M2406.69,1475.68C2406.53,1475.68 2406.3,1475.65 2406.02,1475.59C2405.73,1475.53 2405.5,1475.44 2405.32,1475.34C2405.13,1475.24 2405.04,1475.17 2405.04,1475.13C2406.51,1467.52 2408.18,1459.97 2410.05,1452.48C2410.13,1452.4 2410.25,1452.36 2410.41,1452.36C2411.43,1452.48 2411.94,1452.71 2411.94,1453.03C2410.6,1458.4 2409.36,1463.8 2408.22,1469.21L2414.26,1459.08C2415.56,1456.72 2417.21,1455.54 2419.2,1455.54C2420.06,1455.54 2420.76,1455.86 2421.31,1456.51C2421.86,1457.16 2422.19,1458.44 2422.32,1460.36C2422.32,1463.57 2422.51,1465.78 2422.89,1466.98C2423.28,1468.18 2423.92,1468.78 2424.82,1468.78C2426.53,1468.78 2429.44,1465.69 2433.55,1459.5C2433.59,1459.38 2434.3,1458.38 2435.68,1456.51C2435.8,1456.39 2435.93,1456.33 2436.05,1456.33C2436.09,1456.33 2436.18,1456.34 2436.32,1456.36C2436.47,1456.38 2436.6,1456.53 2436.72,1456.82C2436.72,1456.86 2436.74,1456.92 2436.78,1457C2436.82,1457.08 2436.84,1457.16 2436.84,1457.25C2436.84,1457.37 2435.7,1459.04 2433.42,1462.25L2432.69,1463.35C2429.72,1467.82 2427.1,1470.18 2424.82,1470.43C2423.07,1470.43 2421.87,1469.43 2421.22,1467.44C2420.85,1466.22 2420.67,1465 2420.67,1463.78C2420.67,1460.28 2420.38,1458.2 2419.81,1457.55C2419.57,1457.39 2419.26,1457.31 2418.9,1457.31C2417.88,1457.47 2417.13,1457.96 2416.64,1458.77C2416.39,1459.1 2415.5,1460.58 2413.95,1463.23L2407.85,1473.66C2407.36,1474.44 2407.11,1474.91 2407.09,1475.1C2407.07,1475.28 2407.05,1475.42 2407.03,1475.53C2407.01,1475.63 2406.89,1475.68 2406.69,1475.68Z" style="fill-rule:nonzero;stroke:black;stroke-width:1.04px;"/>
            <path d="M2427.99,1532.81C2428.32,1532.81 2428.6,1532.7 2428.85,1532.5C2428.97,1532.5 2429.41,1532.05 2430.19,1531.16C2432.3,1527.94 2434.4,1523.1 2436.47,1516.63C2439.53,1507.07 2442.13,1496.65 2444.29,1485.38C2439.81,1491.89 2436.11,1497.81 2433.18,1503.14C2428.09,1512.42 2425.55,1520.15 2425.55,1526.34C2425.55,1527.8 2425.86,1529.65 2426.47,1531.89L2426.53,1531.89L2426.53,1532.01C2427.01,1532.54 2427.5,1532.81 2427.99,1532.81ZM2435.13,1470.73C2435.58,1470.73 2435.8,1470.67 2435.8,1470.55C2436.58,1470.31 2437.51,1469.43 2438.61,1467.93C2440.65,1465.08 2442.46,1462.19 2444.04,1459.26C2445.67,1456.45 2446.81,1454.6 2447.46,1453.7C2446.97,1453.62 2446.42,1453.58 2445.81,1453.58C2444.31,1453.58 2442.82,1453.89 2441.36,1454.5C2441.24,1454.62 2441.05,1454.72 2440.81,1454.8C2440.08,1455.17 2439.24,1455.76 2438.31,1456.57C2438.31,1456.65 2438.18,1456.82 2437.94,1457.06C2435.66,1459.22 2433.99,1462.41 2432.93,1466.64C2432.93,1466.89 2432.91,1467.07 2432.87,1467.19L2432.93,1468.6C2432.93,1469.25 2433.24,1469.82 2433.85,1470.31C2434.3,1470.59 2434.72,1470.73 2435.13,1470.73ZM2427.93,1534.58C2426.3,1534.58 2425.2,1533.64 2424.63,1531.77C2424.31,1530.75 2424.04,1528.94 2423.84,1526.34C2423.84,1518.08 2428.42,1506.81 2437.57,1492.52C2439.97,1488.86 2442.44,1485.24 2444.96,1481.66C2446.79,1471.36 2447.97,1462.74 2448.5,1455.78L2445.88,1460.05C2442.54,1465.95 2440.03,1469.67 2438.37,1471.22C2438,1471.63 2437.37,1472.06 2436.47,1472.5L2436.35,1472.5L2436.35,1472.56L2435.62,1472.69C2433.87,1472.69 2432.55,1472.06 2431.65,1470.79C2431.53,1470.55 2431.43,1470.39 2431.35,1470.31C2431.02,1469.45 2430.86,1468.52 2430.86,1467.5C2430.9,1466.89 2431.18,1465.55 2431.71,1463.47C2432.41,1461.56 2433.4,1459.69 2434.7,1457.86L2436.17,1455.9L2438.12,1454.13C2440.24,1452.46 2442.78,1451.63 2445.75,1451.63C2446.69,1451.63 2447.42,1451.69 2447.95,1451.81C2448.03,1451.85 2448.12,1451.87 2448.22,1451.87C2448.33,1451.87 2448.4,1451.89 2448.44,1451.93C2448.85,1452.02 2449.15,1452.1 2449.35,1452.18L2449.48,1452.18C2450.25,1452.18 2450.64,1452.81 2450.64,1454.07L2450.64,1454.25C2450.07,1461.78 2449.07,1469.67 2447.64,1477.94L2449.9,1474.82C2456.17,1466.52 2460.42,1460.74 2462.66,1457.49C2463.19,1456.84 2463.58,1456.51 2463.82,1456.51C2464.02,1456.51 2465.35,1456.65 2467.79,1456.94C2484.06,1458.85 2498.47,1459.89 2511,1460.05C2527.97,1460.05 2538.55,1457.96 2542.74,1453.77L2542.86,1453.58C2543.39,1453.18 2543.92,1452.4 2544.45,1451.26C2544.57,1450.73 2544.77,1450.47 2545.06,1450.47C2545.1,1450.47 2545.15,1450.48 2545.21,1450.5C2545.27,1450.52 2545.35,1450.56 2545.45,1450.62C2545.55,1450.68 2545.64,1450.79 2545.7,1450.93C2545.76,1451.07 2545.79,1451.2 2545.79,1451.32C2545.79,1451.49 2545.71,1451.77 2545.55,1452.18L2545.48,1452.3C2542.84,1458.4 2531.45,1461.46 2511.3,1461.46C2497.39,1461.29 2481.6,1460.11 2463.94,1457.92C2463.25,1459.3 2458.88,1465.4 2450.82,1476.23L2446.97,1481.54C2444.49,1495.09 2441.5,1507.17 2438,1517.79C2435.44,1525.73 2432.83,1531.04 2430.19,1533.72L2430.01,1533.78C2429.56,1534.23 2428.87,1534.5 2427.93,1534.58Z" style="fill-rule:nonzero;stroke:black;stroke-width:1.04px;"/>
        </g>
        <g transform="matrix(0.0590678,0.0609251,-0.592535,0.558225,3191.39,-1342.89)">
            <path d="M2793.64,1518.41C2754.84,1514.74 2667.94,1503.82 2648.95,1499.86C2643.77,1500.64 2515.24,1516.06 2513.51,1516.06C2511.21,1516.06 2507.76,1515.91 2503.15,1515.61C2496.25,1515.13 2492.79,1514.77 2492.79,1514.53C2537.72,1508.05 2602.63,1501.39 2634.28,1496.71C2596.95,1490.3 2553.54,1483.4 2530.07,1477.55C2530.07,1477.37 2531.94,1477.19 2535.68,1477.01C2539.42,1476.83 2545.32,1476.74 2553.37,1476.74C2556.25,1476.8 2557.97,1476.92 2558.55,1477.1C2587.79,1481.58 2604.55,1486.04 2652.4,1494.1L2654.13,1493.92C2669.09,1491.46 2691.82,1488.67 2722.31,1485.56C2746.74,1483.06 2756.15,1481.6 2775.14,1479.56C2791.83,1477.82 2797.29,1481.51 2793.26,1481.81C2761.62,1485.11 2719.72,1490.11 2712.82,1490.95C2699.01,1492.75 2691.53,1493.65 2690.38,1493.65C2687.5,1494.19 2679.45,1495.33 2666.21,1497.07C2693.83,1502.83 2774.56,1511.88 2802.27,1515.89C2804,1515.95 2804.86,1516.13 2804.86,1516.43C2804.86,1516.67 2804.28,1516.95 2803.13,1517.28C2801.98,1517.61 2800.55,1517.88 2798.82,1518.09C2797.09,1518.3 2795.37,1518.41 2793.64,1518.41Z" style="fill-rule:nonzero;stroke:black;stroke-width:1.08px;"/>
        </g>
        <g transform="matrix(1,0,0,1,2.59311,-2.28386)">
            <path d="M2439.69,-248.152C2443.3,-254.263 2440.44,-260.12 2438.52,-260.593" style="fill:none;stroke:black;stroke-width:2.92px;stroke-linecap:round;stroke-miterlimit:1.5;"/>
        </g>
    </g>
</svg>
