<?xml version="1.0" encoding="UTF-8" standalone="no"?>
<!DOCTYPE svg PUBLIC "-//W3C//DTD SVG 1.1//EN" "http://www.w3.org/Graphics/SVG/1.1/DTD/svg11.dtd">
<svg width="100%" height="100%" viewBox="0 0 228 149" version="1.1" xmlns="http://www.w3.org/2000/svg" xmlns:xlink="http://www.w3.org/1999/xlink" xml:space="preserve" xmlns:serif="http://www.serif.com/" style="fill-rule:evenodd;clip-rule:evenodd;stroke-linejoin:round;stroke-miterlimit:2;">
    <g transform="matrix(1,0,0,1,-2710.38,311.665)">
        <g transform="matrix(0.997454,-0.0713086,0.0713086,0.997454,437.007,-1531.63)">
            <path d="M2200.46,1527.77C2199.33,1527.77 2198.77,1527.3 2198.77,1526.37L2212.18,1465.36L2225.94,1406.77C2204.41,1413.51 2192.06,1417.8 2188.88,1419.66C2185.37,1421.76 2183.27,1424.18 2182.59,1426.91C2182.49,1427.4 2182.22,1427.67 2181.78,1427.72C2181,1427.72 2180.51,1427.35 2180.32,1426.62C2180.32,1425.06 2181.24,1423.22 2183.1,1421.12C2185.39,1418.54 2189.37,1416.27 2195.04,1414.31C2205.1,1410.85 2216.03,1407.31 2227.85,1403.69L2253.34,1396.37C2264.13,1393.44 2276.58,1390.39 2290.69,1387.21C2291.28,1387.21 2291.57,1387.58 2291.57,1388.31C2291.57,1388.95 2291.2,1389.41 2290.47,1389.7C2273.72,1393.56 2256.07,1398.1 2237.52,1403.33L2228.58,1405.96L2214.37,1466.31L2201.04,1526.89C2200.9,1527.47 2200.7,1527.77 2200.46,1527.77Z" style="fill-rule:nonzero;stroke:black;stroke-width:0.63px;"/>
            <path d="M2237.66,1458.77C2238.93,1456.33 2240.23,1453.69 2241.55,1450.86C2246.43,1440.12 2250.48,1430.11 2253.7,1420.83C2256,1414.24 2257.24,1409.77 2257.44,1407.43C2256.22,1408.11 2254.97,1409.19 2253.7,1410.65C2251.6,1413.53 2249.75,1417.58 2248.14,1422.81C2243.79,1436.04 2240.3,1448.03 2237.66,1458.77ZM2227.19,1511.43C2226.9,1511.43 2226.62,1511.25 2226.35,1510.88C2226.08,1510.52 2225.94,1510.09 2225.94,1509.6C2227.75,1494.71 2230.44,1479.52 2234,1464.04C2234.39,1462.77 2234.68,1461.51 2234.88,1460.24C2238.25,1446.81 2241.2,1436.24 2243.74,1428.52C2246.14,1421.3 2247.65,1416.92 2248.28,1415.41C2250.72,1409.6 2253.9,1406.01 2257.8,1404.64C2257.85,1404.6 2257.93,1404.57 2258.02,1404.57C2259.24,1404.57 2259.86,1405.43 2259.86,1407.13C2259.86,1409.48 2258.54,1414.36 2255.9,1421.78C2252.29,1432.13 2248.16,1442.29 2243.52,1452.25C2239.96,1459.82 2237.39,1464.63 2235.83,1466.68L2235.61,1467.63C2233.22,1478.62 2231.61,1486.77 2230.78,1492.1C2232.54,1488.29 2234.68,1484.31 2237.22,1480.16C2237.32,1479.91 2237.39,1479.79 2237.44,1479.79C2239.15,1476.76 2241.2,1474.93 2243.6,1474.3C2243.89,1474.2 2244.21,1474.15 2244.55,1474.15C2247.04,1474.15 2248.28,1476.54 2248.28,1481.33C2248.28,1482.21 2248.11,1484.31 2247.77,1487.63C2247.58,1488.9 2247.48,1490.05 2247.48,1491.07L2247.55,1491.22C2247.89,1492.58 2248.43,1493.27 2249.16,1493.27C2251.07,1492.98 2253.75,1490.8 2257.22,1486.75C2262,1481.18 2266.3,1475.1 2270.11,1468.51C2270.35,1468.22 2270.57,1468.07 2270.77,1468.07C2271.26,1468.07 2271.5,1468.34 2271.5,1468.88C2271.5,1469.12 2271.45,1469.37 2271.36,1469.61C2267.64,1476.11 2263.32,1482.28 2258.39,1488.14C2254.48,1492.83 2251.31,1495.17 2248.87,1495.17C2248.33,1495.12 2247.84,1494.95 2247.4,1494.66C2247.26,1494.66 2247.11,1494.56 2246.97,1494.37C2246.28,1493.68 2245.82,1492.61 2245.57,1491.14C2245.52,1491 2245.5,1490.75 2245.5,1490.41C2245.5,1489.87 2245.62,1488.8 2245.87,1487.19C2246.11,1484.6 2246.23,1482.65 2246.23,1481.33C2246.23,1477.96 2245.74,1476.28 2244.77,1476.28C2243.06,1476.28 2241.28,1477.74 2239.42,1480.67C2234.24,1488.97 2230.75,1496.98 2228.95,1504.69L2228.95,1504.77C2228.85,1504.86 2228.61,1506.62 2228.22,1510.04C2228.07,1510.97 2227.73,1511.43 2227.19,1511.43Z" style="fill-rule:nonzero;stroke:black;stroke-width:0.63px;"/>
            <path d="M2269.6,1484.85C2270.13,1484.85 2270.44,1484.81 2270.51,1484.74C2270.59,1484.66 2270.72,1484.6 2270.91,1484.55C2272.14,1484.16 2274.94,1480.26 2279.34,1472.83C2280.17,1471.08 2281.8,1468.29 2284.24,1464.48L2284.03,1464.48C2283.54,1464.39 2283.07,1464.34 2282.63,1464.34C2280.68,1464.34 2278.83,1464.7 2277.07,1465.44C2276.97,1465.53 2276.7,1465.65 2276.26,1465.8C2275.68,1466.14 2275.09,1466.53 2274.5,1466.97C2274.31,1467.22 2274.09,1467.44 2273.85,1467.63C2273.6,1467.83 2273.47,1467.94 2273.44,1467.96C2273.42,1467.99 2273.37,1468 2273.3,1468C2273.22,1468 2273.11,1468.15 2272.97,1468.44C2272.23,1469.17 2271.83,1469.62 2271.76,1469.79C2271.68,1469.96 2271.5,1470.2 2271.21,1470.49C2270.82,1470.98 2270.62,1471.3 2270.62,1471.44C2270.43,1471.64 2270.26,1471.88 2270.11,1472.17C2268.06,1475.3 2266.98,1478.38 2266.89,1481.4C2266.89,1483.65 2267.79,1484.8 2269.6,1484.85ZM2288.64,1488.87C2287.57,1488.87 2286.86,1488.7 2286.52,1488.36C2286.22,1488.36 2285.37,1487.65 2283.95,1486.24C2283.41,1485.65 2282.91,1484.65 2282.45,1483.23C2281.99,1481.82 2281.76,1480.43 2281.76,1479.06C2281.76,1476.57 2282,1474.3 2282.49,1472.25L2278.68,1478.55C2275.99,1483.04 2273.5,1485.87 2271.21,1487.04L2271.06,1487.04L2271.06,1487.12L2270.18,1487.26C2268.08,1487.26 2266.5,1486.51 2265.42,1484.99C2265.28,1484.7 2265.15,1484.5 2265.06,1484.4C2264.66,1483.38 2264.47,1482.26 2264.47,1481.04C2265.01,1476.69 2266.4,1473.03 2268.64,1470.05C2268.74,1469.86 2269.47,1468.88 2270.84,1467.12C2274.31,1463.65 2278.24,1461.92 2282.63,1461.92C2283.22,1461.92 2283.76,1461.97 2284.24,1462.07C2284.54,1462.16 2284.83,1462.21 2285.12,1462.21C2285.42,1462.21 2285.88,1462.34 2286.52,1462.58C2286.66,1462.58 2286.82,1462.62 2286.99,1462.69C2287.16,1462.76 2287.26,1462.8 2287.28,1462.8C2287.31,1462.8 2287.35,1462.82 2287.39,1462.87C2287.88,1463.02 2288.13,1463.38 2288.13,1463.97C2285.73,1468.22 2284.34,1473 2283.95,1478.33C2283.95,1482.92 2285.27,1485.7 2287.91,1486.68C2288.1,1486.77 2288.35,1486.82 2288.64,1486.82C2290.93,1486.82 2293.62,1484.38 2296.7,1479.5L2303.87,1467.85C2304.41,1467.85 2304.68,1468.15 2304.68,1468.73C2300.82,1476.2 2297.16,1481.94 2293.69,1485.94C2291.74,1487.75 2290.32,1488.7 2289.45,1488.8L2288.64,1488.87Z" style="fill-rule:nonzero;stroke:black;stroke-width:0.63px;"/>
            <path d="M2300.36,1490.92C2300.16,1490.92 2299.89,1490.89 2299.55,1490.81C2299.21,1490.74 2298.93,1490.64 2298.71,1490.52C2298.49,1490.4 2298.38,1490.31 2298.38,1490.27C2300.14,1481.13 2302.14,1472.08 2304.39,1463.09C2304.48,1462.99 2304.63,1462.94 2304.83,1462.94C2306.05,1463.09 2306.66,1463.36 2306.66,1463.75C2305.05,1470.2 2303.56,1476.67 2302.19,1483.16L2309.44,1471C2311,1468.17 2312.98,1466.75 2315.37,1466.75C2316.4,1466.75 2317.24,1467.14 2317.9,1467.93C2318.56,1468.71 2318.96,1470.25 2319.11,1472.54C2319.11,1476.4 2319.34,1479.05 2319.8,1480.49C2320.27,1481.93 2321.04,1482.65 2322.11,1482.65C2324.16,1482.65 2327.65,1478.94 2332.59,1471.52C2332.63,1471.37 2333.49,1470.17 2335.15,1467.93C2335.3,1467.78 2335.44,1467.71 2335.59,1467.71C2335.64,1467.71 2335.75,1467.72 2335.92,1467.74C2336.09,1467.77 2336.25,1467.95 2336.39,1468.29C2336.39,1468.34 2336.42,1468.41 2336.47,1468.51C2336.52,1468.61 2336.54,1468.71 2336.54,1468.81C2336.54,1468.95 2335.17,1470.95 2332.44,1474.81L2331.56,1476.13C2327.99,1481.5 2324.85,1484.33 2322.11,1484.62C2320.01,1484.62 2318.57,1483.43 2317.79,1481.04C2317.35,1479.57 2317.13,1478.11 2317.13,1476.64C2317.13,1472.44 2316.79,1469.95 2316.11,1469.17C2315.81,1468.98 2315.45,1468.88 2315.01,1468.88C2313.79,1469.07 2312.88,1469.66 2312.3,1470.64C2312,1471.03 2310.93,1472.81 2309.07,1475.98L2301.75,1488.51C2301.16,1489.43 2300.86,1490.01 2300.84,1490.23C2300.81,1490.45 2300.79,1490.62 2300.76,1490.74C2300.74,1490.86 2300.6,1490.92 2300.36,1490.92Z" style="fill-rule:nonzero;stroke:black;stroke-width:0.63px;"/>
            <path d="M2334.27,1485.43C2335,1484.55 2336.22,1483.23 2337.93,1481.48C2341.84,1477.37 2344.13,1474.76 2344.82,1473.64C2345.45,1472.76 2345.79,1471.95 2345.84,1471.22C2345.84,1471.03 2345.83,1470.92 2345.8,1470.89C2345.78,1470.87 2345.77,1470.84 2345.77,1470.82C2345.77,1470.79 2345.74,1470.76 2345.7,1470.71C2345.06,1470.71 2344.26,1471.17 2343.28,1472.1C2343.08,1472.15 2342.72,1472.44 2342.18,1472.98C2339.84,1475.18 2337.61,1478.35 2335.51,1482.5C2335.03,1483.53 2334.61,1484.5 2334.27,1485.43ZM2338.81,1460.09C2340.08,1457.7 2341.37,1455.04 2342.69,1452.11C2347.62,1441.31 2351.68,1431.31 2354.85,1422.08C2357.24,1415.29 2358.51,1410.8 2358.66,1408.6C2355,1410.6 2351.87,1415.75 2349.28,1424.05C2344.99,1437.24 2341.59,1448.83 2339.1,1458.84L2338.81,1460.09ZM2332.66,1490.05L2332.73,1489.97L2332.66,1489.97L2332.66,1490.05ZM2328.41,1512.68C2328.07,1512.68 2327.76,1512.51 2327.49,1512.16C2327.23,1511.82 2327.09,1511.36 2327.09,1510.77C2327.87,1504.86 2328.7,1498.98 2329.58,1493.12C2329.58,1492.83 2329.63,1492.54 2329.73,1492.24C2331.53,1481.5 2333.51,1471.73 2335.66,1462.94C2338.4,1452.01 2341.81,1439.85 2345.91,1426.47C2347.38,1422.08 2348.55,1418.81 2349.43,1416.66C2351.92,1410.8 2355.1,1407.21 2358.95,1405.89L2359.32,1405.82C2359.76,1405.82 2360.2,1406.04 2360.64,1406.48C2360.88,1407.11 2361.03,1407.62 2361.08,1408.01C2361.08,1410.5 2359.73,1415.51 2357.05,1423.03C2353.43,1433.33 2349.31,1443.49 2344.67,1453.5C2341.11,1461.16 2338.52,1466 2336.91,1468C2335.98,1472.1 2335.15,1475.96 2334.42,1479.57C2336.27,1476.11 2338.44,1473.27 2340.93,1471.08C2342.11,1470.05 2342.79,1469.54 2342.99,1469.54C2343.57,1468.95 2344.4,1468.61 2345.48,1468.51C2347.14,1468.51 2347.97,1469.41 2347.97,1471.22C2347.97,1472.39 2347.45,1473.71 2346.43,1475.18C2345.11,1476.98 2342.84,1479.5 2339.62,1482.72C2336.69,1485.85 2334.78,1487.99 2333.9,1489.17C2336,1488.43 2340.42,1486.02 2347.16,1481.91C2354.19,1477.57 2360.88,1473.1 2367.23,1468.51C2367.42,1468.32 2367.62,1468.22 2367.82,1468.22C2368.25,1468.22 2368.5,1468.51 2368.55,1469.1C2368.55,1469.88 2365.06,1472.56 2358.07,1477.15C2343.86,1486.63 2335.39,1491.36 2332.66,1491.36C2332.51,1491.36 2332.41,1491.34 2332.37,1491.29C2332.32,1491.63 2332.27,1491.9 2332.22,1492.1C2332.17,1492.29 2332.12,1492.46 2332.07,1492.61L2331.93,1493.93C2331.19,1497.15 2330.34,1502.94 2329.36,1511.29C2329.26,1512.21 2328.95,1512.68 2328.41,1512.68Z" style="fill-rule:nonzero;stroke:black;stroke-width:0.63px;"/>
            <path d="M2366.42,1512.09C2367.2,1512.09 2367.77,1511.92 2368.11,1511.58L2368.55,1511.36L2368.62,1511.36L2368.62,1511.29C2369.35,1510.75 2370.04,1510.16 2370.67,1509.53C2374.14,1506.06 2375.87,1502.03 2375.87,1497.44L2375.87,1495.98L2375.8,1496.05C2375.65,1496.2 2375.52,1496.36 2375.39,1496.53C2375.27,1496.7 2373.87,1498.25 2371.18,1501.18C2369.52,1503.03 2368.2,1504.77 2367.23,1506.38C2367.18,1506.52 2367.09,1506.68 2366.97,1506.85C2366.85,1507.03 2366.79,1507.15 2366.79,1507.22C2366.79,1507.29 2366.78,1507.36 2366.75,1507.4C2366.73,1507.45 2366.69,1507.48 2366.64,1507.48C2366.35,1508.06 2366.15,1508.55 2366.06,1508.94L2365.54,1510.85C2365.69,1511.68 2365.98,1512.09 2366.42,1512.09ZM2366.28,1514.51C2365.79,1514.51 2365.13,1514.24 2364.3,1513.7L2364.23,1513.56C2363.54,1512.77 2363.2,1511.85 2363.2,1510.77C2363.2,1510.09 2363.24,1509.66 2363.31,1509.49C2363.38,1509.32 2363.43,1509.2 2363.46,1509.12C2363.48,1509.05 2363.49,1508.99 2363.49,1508.94L2364.08,1507.33L2364.52,1506.45C2365.79,1503.57 2368.77,1499.79 2373.45,1495.1C2373.75,1494.81 2373.91,1494.63 2373.93,1494.59C2373.95,1494.54 2374.43,1493.93 2375.36,1492.76C2375.07,1491 2373.58,1488.07 2370.89,1483.97C2368.35,1480.5 2366.74,1477.35 2366.06,1474.52C2365.96,1474.42 2365.91,1474.15 2365.91,1473.71C2365.86,1473.61 2365.84,1473.42 2365.84,1473.13L2365.76,1473.05L2365.69,1471.88C2365.69,1469.59 2366.11,1467.73 2366.94,1466.31C2367.13,1465.97 2367.3,1465.65 2367.45,1465.36C2367.6,1465.07 2367.77,1464.78 2367.96,1464.48L2368.11,1464.19L2368.25,1464.12C2368.3,1464.12 2368.35,1464.06 2368.4,1463.93C2368.45,1463.81 2368.6,1463.63 2368.84,1463.38L2369.06,1463.09L2369.13,1462.94C2369.13,1462.85 2369.28,1462.73 2369.57,1462.58C2371.38,1460.63 2373.72,1459.65 2376.6,1459.65C2377.14,1459.65 2377.51,1459.7 2377.7,1459.8C2378.09,1459.8 2378.68,1459.99 2379.46,1460.38C2381.76,1461.8 2382.9,1463.65 2382.9,1465.95C2382.9,1466.73 2382.61,1467.12 2382.02,1467.12C2381.39,1467.12 2380.88,1466.61 2380.49,1465.58C2380,1463.97 2379.17,1462.9 2377.99,1462.36C2377.26,1462.12 2376.7,1461.99 2376.31,1461.99C2374.5,1461.99 2372.7,1462.87 2370.89,1464.63C2370.7,1464.83 2370.6,1464.95 2370.6,1465C2370.21,1465.34 2369.94,1465.73 2369.79,1466.17C2369.69,1466.31 2369.61,1466.45 2369.54,1466.57C2369.46,1466.69 2369.4,1466.8 2369.35,1466.9C2369.3,1467 2369.28,1467.07 2369.28,1467.12C2368.99,1467.66 2368.74,1468.22 2368.55,1468.81C2368.55,1469.15 2368.5,1469.32 2368.4,1469.32L2368.11,1471.81L2368.25,1473.27C2368.3,1473.42 2368.33,1473.58 2368.33,1473.75C2368.33,1473.92 2368.35,1474.05 2368.4,1474.15C2368.45,1474.25 2368.47,1474.35 2368.47,1474.44C2368.47,1475.57 2369.94,1478.28 2372.87,1482.57C2375.36,1486.29 2376.82,1488.95 2377.26,1490.56L2378.51,1489.09L2378.51,1489.02L2379.39,1488.07C2379.97,1487.34 2381.02,1486.14 2382.54,1484.48C2387.71,1478.86 2392.35,1473.47 2396.45,1468.29C2396.79,1467.95 2397.06,1467.78 2397.26,1467.78C2397.99,1467.78 2398.36,1468.22 2398.36,1469.1C2393.52,1475.06 2388.64,1480.96 2383.71,1486.82C2381.9,1488.63 2380,1490.8 2377.99,1493.34C2378.19,1494.41 2378.29,1495.54 2378.29,1496.71C2378.29,1501.69 2376.68,1506.13 2373.45,1510.04C2370.96,1513.02 2368.57,1514.51 2366.28,1514.51Z" style="fill-rule:nonzero;stroke:black;stroke-width:0.63px;"/>
        </g>
    </g>
</svg>
